<?xml version="1.0" encoding="UTF-8"?><svg id="Ebene_2" xmlns="http://www.w3.org/2000/svg" viewBox="0 0 26.03 137.75"><defs><style>.cls-1{fill:#191919;}</style></defs><g id="Ebene_1-2"><path class="cls-1" d="M25.2,107.83v8.53l-7.96,6.66v7.42h7.96v7.31H0v-17.68c0-6.44,2.84-11.45,8.6-11.45,4.21,0,6.88,2.66,8.03,6.62l8.57-7.42ZM11.92,130.48v-9.86c0-2.63-.72-4.54-3.17-4.54s-3.17,1.91-3.17,4.54v9.86h6.34ZM16.74,99.78c3.02-.58,4.25-2.99,4.25-7.02,0-3.17-.76-5.08-2.27-7.06l3.78-3.6c2.52,2.84,3.53,6.52,3.53,11.05,0,8.46-4.1,13.39-10.8,13.39s-10.8-4.86-10.8-12.85c0-7.2,3.6-12.31,10.66-12.31.79,0,1.26.04,1.66.18v18.22ZM9.4,93.63c0,3.06,1.12,5.18,3.53,5.98l-.07-11.66c-2.34.76-3.46,2.66-3.46,5.69ZM22.68,78.96c-1.1,0-1.87-.3-2.3-.9-.46-.6-.68-1.33-.68-2.2s.23-1.56.68-2.16c.43-.6,1.2-.9,2.3-.9s1.82.3,2.3.9c.46.6.68,1.32.68,2.16s-.23,1.6-.68,2.2c-.48.6-1.25.9-2.3.9ZM8.17,78.96c-1.1,0-1.87-.3-2.3-.9-.46-.6-.68-1.33-.68-2.2s.23-1.56.68-2.16c.43-.6,1.2-.9,2.3-.9s1.82.3,2.3.9c.46.6.68,1.32.68,2.16s-.23,1.6-.68,2.2c-.48.6-1.25.9-2.3.9ZM4.46,58.25c0-7.6,3.38-12.13,9.54-12.13h7.42c1.44,0,2.63-.25,3.78-.86v7.2c-.61.4-1.37.68-2.05.68h-.04c1.58,1.51,2.81,4.28,2.81,7.81,0,4.21-1.66,9.58-6.77,9.58s-6.77-5.36-6.77-9.58c0-3.53,1.22-6.3,2.84-7.81h-1.3c-3.02,0-4.46,2.23-4.46,6.59,0,2.38.32,4.72,1.55,7.16l-4.5,1.62c-1.3-2.7-2.05-6.8-2.05-10.26ZM19.33,52.99h-.4c-1.91,1.37-2.41,3.89-2.41,5.94s.5,4.72,2.63,4.72,2.63-2.7,2.63-4.72-.5-4.57-2.45-5.94ZM20.23,19.02c3.17,1.66,5.8,5.44,5.8,11.48,0,7.96-4.18,12.92-10.8,12.92s-10.8-4.97-10.8-12.92c0-6.01,2.63-9.72,5.72-11.34l2.45,6.08c-2.02,1.04-2.74,2.95-2.74,5.18,0,3.64,1.84,6.19,5.36,6.19s5.36-2.56,5.36-6.19c0-2.2-.76-4.21-2.84-5.33l2.48-6.08ZM19.37,1.19l4.64-1.19c1.22,1.8,1.94,4.61,1.94,7.02,0,4.54-2.48,7.96-7.31,7.96h-8.39v3.53h-5v-3.53H.61v-7.09h4.64V.22h5v7.67h7.2c1.8,0,2.84-1.33,2.84-3.24,0-1.19-.4-2.3-.94-3.46Z"/></g></svg>